<?xml version="1.0" encoding="UTF-8"?>
<!DOCTYPE svg PUBLIC "-//W3C//DTD SVG 1.1//EN" "http://www.w3.org/Graphics/SVG/1.1/DTD/svg11.dtd">
<svg xmlns="http://www.w3.org/2000/svg" version="1.1" width="1080px" height="1080px" style="shape-rendering:geometricPrecision; text-rendering:geometricPrecision; image-rendering:optimizeQuality; fill-rule:evenodd; clip-rule:evenodd" xmlns:xlink="http://www.w3.org/1999/xlink">
<g><path style="opacity:1" fill="#000000" d="M -0.5,-0.5 C 359.5,-0.5 719.5,-0.5 1079.5,-0.5C 1079.5,359.5 1079.5,719.5 1079.5,1079.5C 719.5,1079.5 359.5,1079.5 -0.5,1079.5C -0.5,719.5 -0.5,359.5 -0.5,-0.5 Z"/></g>
<g><path style="opacity:1" fill="#7b0001" d="M 457.5,211.5 C 459.607,210.532 461.941,210.198 464.5,210.5C 464.771,212.38 464.104,213.713 462.5,214.5C 462.5,213.5 462.5,212.5 462.5,211.5C 460.833,211.5 459.167,211.5 457.5,211.5 Z"/></g>
<g><path style="opacity:1" fill="#fa0000" d="M 457.5,211.5 C 459.167,211.5 460.833,211.5 462.5,211.5C 462.5,212.5 462.5,213.5 462.5,214.5C 456.425,218.07 450.758,222.237 445.5,227C 421.672,249.795 404.839,276.962 395,308.5C 389.576,328.196 390.576,347.529 398,366.5C 404.902,378.947 410.069,391.947 413.5,405.5C 413.666,410.844 413.499,416.177 413,421.5C 412.329,420.748 411.496,420.414 410.5,420.5C 407.276,414.391 403.776,408.391 400,402.5C 390.95,392.077 382.616,381.077 375,369.5C 365.376,353.587 357.376,336.92 351,319.5C 344.271,294.28 349.771,272.28 367.5,253.5C 381.558,240.63 397.558,230.796 415.5,224C 424.059,220.813 432.725,217.813 441.5,215C 446.87,213.931 452.203,212.764 457.5,211.5 Z"/></g>
<g><path style="opacity:1" fill="#790002" d="M 622.5,211.5 C 620.833,211.5 619.167,211.5 617.5,211.5C 617.5,212.5 617.5,213.5 617.5,214.5C 615.896,213.713 615.229,212.38 615.5,210.5C 618.059,210.198 620.393,210.532 622.5,211.5 Z"/></g>
<g><path style="opacity:1" fill="#fa0000" d="M 622.5,211.5 C 650.649,217.907 676.982,228.741 701.5,244C 716.188,255.21 726.022,269.71 731,287.5C 731.846,297.404 731.346,307.237 729.5,317C 726.154,325.365 722.987,333.865 720,342.5C 708.296,363.546 694.963,383.546 680,402.5C 675.625,408.597 671.792,414.93 668.5,421.5C 666.414,420.852 665.414,419.352 665.5,417C 666.286,413.542 666.62,410.042 666.5,406.5C 669.493,392.335 674.659,379.002 682,366.5C 688.862,349.671 690.196,332.338 686,314.5C 675.173,272.857 652.339,239.523 617.5,214.5C 617.5,213.5 617.5,212.5 617.5,211.5C 619.167,211.5 620.833,211.5 622.5,211.5 Z"/></g>
<g><path style="opacity:1" fill="#fb0000" d="M 432.5,476.5 C 435.442,482.106 439.442,486.773 444.5,490.5C 444.369,491.239 444.536,491.906 445,492.5C 454.626,503.057 466.126,510.724 479.5,515.5C 479.804,516.15 480.137,516.817 480.5,517.5C 477.572,518.484 474.572,518.817 471.5,518.5C 459.916,515.806 448.916,511.64 438.5,506C 417.183,492.955 396.183,479.455 375.5,465.5C 353.84,450.006 335.34,431.34 320,409.5C 311.623,396.327 306.456,381.993 304.5,366.5C 304.584,357.822 304.917,349.155 305.5,340.5C 305.965,335.615 307.132,330.948 309,326.5C 315.814,311.036 324.981,297.202 336.5,285C 337.793,284.51 339.127,284.343 340.5,284.5C 334.995,327.16 348.162,362.826 380,391.5C 386,398.833 392,406.167 398,413.5C 410.006,434.175 421.506,455.175 432.5,476.5 Z"/></g>
<g><path style="opacity:1" fill="#fb0000" d="M 739.5,284.5 C 741.144,284.286 742.644,284.62 744,285.5C 754.077,296.654 762.41,308.987 769,322.5C 777.637,345.897 777.637,369.23 769,392.5C 758.971,412.875 745.471,430.708 728.5,446C 718.785,454.05 708.785,461.716 698.5,469C 682.612,478.235 667.279,488.235 652.5,499C 650.866,499.494 649.199,499.66 647.5,499.5C 647.335,496.482 647.502,493.482 648,490.5C 653.605,473.686 659.605,457.019 666,440.5C 680.54,415.079 698.207,392.079 719,371.5C 736.468,345.123 743.302,316.123 739.5,284.5 Z"/></g>
<g><path style="opacity:1" fill="#970003" d="M 305.5,340.5 C 304.917,349.155 304.584,357.822 304.5,366.5C 303.132,357.784 303.465,349.118 305.5,340.5 Z"/></g>
<g><path style="opacity:1" fill="#8d0001" d="M 578.5,402.5 C 576.958,401.699 575.292,401.366 573.5,401.5C 574.204,399.656 575.537,399.156 577.5,400C 578.252,400.671 578.586,401.504 578.5,402.5 Z"/></g>
<g><path style="opacity:1" fill="#fa0200" d="M 573.5,401.5 C 575.292,401.366 576.958,401.699 578.5,402.5C 578.793,406.437 578.46,410.27 577.5,414C 579.797,414.018 582.131,413.851 584.5,413.5C 585.629,415.628 585.796,417.961 585,420.5C 582.356,428.828 578.356,436.494 573,443.5C 567.011,447.823 561.678,452.823 557,458.5C 554.053,462.39 552.22,466.723 551.5,471.5C 550.153,480.38 551.487,480.714 555.5,472.5C 557.23,471.088 558.73,471.422 560,473.5C 562.634,484.653 565.634,495.653 569,506.5C 570.673,509.001 572.507,511.334 574.5,513.5C 574.059,506.511 574.559,499.511 576,492.5C 580.399,487.053 585.899,483.22 592.5,481C 608.982,480.344 622.148,473.511 632,460.5C 635.632,452.731 638.466,444.731 640.5,436.5C 642.167,435.167 643.833,435.167 645.5,436.5C 647.566,440.202 648.733,444.202 649,448.5C 649.667,457.167 649.667,465.833 649,474.5C 645.783,486.071 641.117,497.071 635,507.5C 628.482,515.68 621.648,523.513 614.5,531C 594.505,549.082 574.005,566.582 553,583.5C 551.69,586.473 549.69,588.807 547,590.5C 545.138,594.882 543.305,599.216 541.5,603.5C 540.2,606.024 540.2,608.691 541.5,611.5C 542.919,610.995 543.585,609.995 543.5,608.5C 546.972,599.74 552.305,592.24 559.5,586C 561.112,585.28 562.612,585.446 564,586.5C 567.83,600.819 574.83,613.486 585,624.5C 587.402,629.636 590.068,634.636 593,639.5C 595.866,646.826 597.033,654.493 596.5,662.5C 594.988,660.683 592.988,659.683 590.5,659.5C 590.664,662.187 590.497,664.854 590,667.5C 589.617,666.944 589.117,666.611 588.5,666.5C 588.768,664.901 588.434,663.568 587.5,662.5C 587.5,661.5 587.5,660.5 587.5,659.5C 586.167,659.5 584.833,659.5 583.5,659.5C 583.5,669.5 583.5,679.5 583.5,689.5C 582.178,689.67 581.011,689.337 580,688.5C 579.499,682.493 578.999,676.493 578.5,670.5C 578.354,666.393 577.02,662.727 574.5,659.5C 573.52,662.086 573.187,664.753 573.5,667.5C 573.667,681.837 573.5,696.171 573,710.5C 572.821,714.025 572.321,717.359 571.5,720.5C 570.542,720.953 569.708,721.619 569,722.5C 568.828,727.202 568.328,731.868 567.5,736.5C 566.85,734.816 565.85,733.483 564.5,732.5C 561.085,711.943 557.752,691.277 554.5,670.5C 554.849,667.537 553.849,665.204 551.5,663.5C 550.176,675.327 550.176,686.993 551.5,698.5C 551.5,713.833 551.5,729.167 551.5,744.5C 547.875,747.942 546.208,752.275 546.5,757.5C 546.307,773.667 544.473,789.667 541,805.5C 540.311,806.357 539.478,807.023 538.5,807.5C 536.691,802.267 535.191,796.934 534,791.5C 533.365,778.105 531.865,765.105 529.5,752.5C 528.265,743.052 527.265,733.719 526.5,724.5C 526.47,704.815 526.637,685.148 527,665.5C 526.667,665.833 526.333,666.167 526,666.5C 523.676,674.1 521.676,681.767 520,689.5C 517.479,706.477 515.146,723.477 513,740.5C 512.617,741.056 512.117,741.389 511.5,741.5C 509.535,734.24 508.868,726.573 509.5,718.5C 509.666,711.825 509.5,705.158 509,698.5C 507.842,698.002 507.009,697.169 506.5,696C 505.984,693.331 505.317,690.831 504.5,688.5C 504.5,682.5 504.5,676.5 504.5,670.5C 504.5,666.833 504.5,663.167 504.5,659.5C 503.5,659.5 502.5,659.5 501.5,659.5C 501.5,661.167 501.5,662.833 501.5,664.5C 500.5,670.5 499.5,676.5 498.5,682.5C 497.819,684.158 496.985,685.825 496,687.5C 495.802,685.618 495.302,683.952 494.5,682.5C 494.5,674.833 494.5,667.167 494.5,659.5C 493.5,659.5 492.5,659.5 491.5,659.5C 490.883,659.611 490.383,659.944 490,660.5C 489.077,659.241 488.243,657.908 487.5,656.5C 486.571,657.689 486.238,659.022 486.5,660.5C 485.041,660.567 483.708,660.234 482.5,659.5C 482.5,657.5 482.5,655.5 482.5,653.5C 484.274,643.414 487.441,633.748 492,624.5C 497.031,616.813 502.031,609.146 507,601.5C 509.435,596.528 511.268,591.361 512.5,586C 511.527,579.219 509.027,573.053 505,567.5C 493.994,554.661 481.827,542.995 468.5,532.5C 467.691,530.929 467.357,529.262 467.5,527.5C 482.926,531.082 497.926,529.749 512.5,523.5C 514.39,522.388 516.39,521.554 518.5,521C 519.451,520.282 519.617,519.449 519,518.5C 491.58,515.861 467.08,506.194 445.5,489.5C 441.83,484.158 438.164,478.825 434.5,473.5C 428.802,461.346 428.135,449.013 432.5,436.5C 433.117,436.389 433.617,436.056 434,435.5C 435.55,436.591 436.717,437.924 437.5,439.5C 436.958,455.288 442.625,468.122 454.5,478C 463.32,481.947 472.654,483.613 482.5,483C 490.768,485.538 498.768,488.871 506.5,493C 510.086,494.108 513.753,494.608 517.5,494.5C 519.346,494.778 520.68,494.111 521.5,492.5C 519.827,490.914 517.827,490.247 515.5,490.5C 514.172,489.493 513.172,488.16 512.5,486.5C 522.666,471.314 521.332,457.148 508.5,444C 501.052,443.399 493.718,443.899 486.5,445.5C 486.89,437.228 490.89,431.395 498.5,428C 502.833,427 507.167,426 511.5,425C 513.833,421.333 516.833,418.333 520.5,416C 532.11,417.255 543.777,417.922 555.5,418C 563.651,414.676 569.651,409.176 573.5,401.5 Z"/></g>
<g><path style="opacity:1" fill="#850001" d="M 786.5,406.5 C 785.732,405.737 785.232,404.737 785,403.5C 784.617,404.056 784.117,404.389 783.5,404.5C 783.461,403.244 783.961,402.244 785,401.5C 786.269,402.905 786.769,404.571 786.5,406.5 Z"/></g>
<g><path style="opacity:1" fill="#870001" d="M 296.5,404.5 C 295.1,405.1 294.1,406.1 293.5,407.5C 293.116,405.335 293.783,403.668 295.5,402.5C 296.298,402.957 296.631,403.624 296.5,404.5 Z"/></g>
<g><path style="opacity:1" fill="#fa0000" d="M 296.5,404.5 C 298.372,408.603 300.539,412.603 303,416.5C 304.25,421.668 306.584,426.334 310,430.5C 314.167,436 319,440.833 324.5,445C 363.951,466.101 401.617,490.101 437.5,517C 450.721,528.711 463.221,541.211 475,554.5C 481.922,564.344 487.255,575.011 491,586.5C 491.808,588.579 491.641,590.579 490.5,592.5C 486.314,589.148 482.647,585.314 479.5,581C 469.624,576.667 459.29,575.334 448.5,577C 407.942,591.087 371.775,583.92 340,555.5C 338.71,553.208 337.043,551.208 335,549.5C 334.517,548.552 334.351,547.552 334.5,546.5C 335.873,546.343 337.207,546.51 338.5,547C 350.18,554.332 363.014,557.832 377,557.5C 393.046,558.42 407.546,554.42 420.5,545.5C 424.041,543.735 424.041,542.735 420.5,542.5C 417.545,542.987 414.879,543.987 412.5,545.5C 400.434,548.233 388.434,548.067 376.5,545C 327.077,522.681 299.244,484.514 293,430.5C 292.202,422.754 292.369,415.087 293.5,407.5C 294.1,406.1 295.1,405.1 296.5,404.5 Z"/></g>
<g><path style="opacity:1" fill="#fb0000" d="M 786.5,406.5 C 786.5,417.5 786.5,428.5 786.5,439.5C 785.076,441.515 784.41,443.848 784.5,446.5C 773.518,494.711 745.185,527.877 699.5,546C 686.703,548.16 674.036,547.66 661.5,544.5C 659.799,542.577 657.799,542.243 655.5,543.5C 656.688,545.262 658.355,546.262 660.5,546.5C 672.285,554.475 685.452,558.142 700,557.5C 706.873,557.492 713.707,556.992 720.5,556C 728.212,552.309 736.212,549.475 744.5,547.5C 744.649,548.552 744.483,549.552 744,550.5C 723.811,571.257 699.144,582.59 670,584.5C 652.318,581.137 634.484,578.47 616.5,576.5C 611.897,576.158 607.564,576.991 603.5,579C 598.298,583.037 593.631,587.537 589.5,592.5C 588.353,590.235 588.186,587.902 589,585.5C 593.4,573.368 599.4,562.035 607,551.5C 628.489,527.855 652.656,507.188 679.5,489.5C 694.721,479.771 710.055,470.271 725.5,461C 740.365,454.744 753.698,446.244 765.5,435.5C 768.142,431.691 770.975,428.024 774,424.5C 777.091,417.688 780.258,411.021 783.5,404.5C 784.117,404.389 784.617,404.056 785,403.5C 785.232,404.737 785.732,405.737 786.5,406.5 Z"/></g>
<g><path style="opacity:1" fill="#5d0001" d="M 578.5,402.5 C 579.479,405.625 579.813,408.958 579.5,412.5C 580.93,412.579 582.264,412.246 583.5,411.5C 584.298,411.957 584.631,412.624 584.5,413.5C 582.131,413.851 579.797,414.018 577.5,414C 578.46,410.27 578.793,406.437 578.5,402.5 Z"/></g>
<g><path style="opacity:1" fill="#a30002" d="M 413.5,405.5 C 414.489,410.975 414.822,416.642 414.5,422.5C 412.62,422.771 411.287,422.104 410.5,420.5C 411.496,420.414 412.329,420.748 413,421.5C 413.499,416.177 413.666,410.844 413.5,405.5 Z"/></g>
<g><path style="opacity:1" fill="#7c0002" d="M 666.5,406.5 C 666.62,410.042 666.286,413.542 665.5,417C 665.414,419.352 666.414,420.852 668.5,421.5C 667.614,422.776 666.614,422.776 665.5,421.5C 664.436,416.322 664.77,411.322 666.5,406.5 Z"/></g>
<g><path style="opacity:1" fill="#7f0002" d="M 437.5,439.5 C 436.717,437.924 435.55,436.591 434,435.5C 433.617,436.056 433.117,436.389 432.5,436.5C 432.5,435.5 432.5,434.5 432.5,433.5C 436.314,433.651 437.981,435.651 437.5,439.5 Z"/></g>
<g><path style="opacity:1" fill="#840002" d="M 645.5,436.5 C 643.833,435.167 642.167,435.167 640.5,436.5C 640.418,434.748 641.251,433.748 643,433.5C 644.749,433.748 645.582,434.748 645.5,436.5 Z"/></g>
<g><path style="opacity:1" fill="#580302" d="M 786.5,439.5 C 786.59,442.152 785.924,444.485 784.5,446.5C 784.41,443.848 785.076,441.515 786.5,439.5 Z"/></g>
<g><path style="opacity:1" fill="#6e0001" d="M 551.5,471.5 C 551.281,472.675 551.614,473.675 552.5,474.5C 553.518,473.807 554.518,473.141 555.5,472.5C 551.487,480.714 550.153,480.38 551.5,471.5 Z"/></g>
<g><path style="opacity:1" fill="#290900" d="M 434.5,473.5 C 438.164,478.825 441.83,484.158 445.5,489.5C 444.833,489.5 444.5,489.833 444.5,490.5C 439.442,486.773 435.442,482.106 432.5,476.5C 434.048,476.179 434.715,475.179 434.5,473.5 Z"/></g>
<g><path style="opacity:1" fill="#890002" d="M 515.5,490.5 C 517.827,490.247 519.827,490.914 521.5,492.5C 520.68,494.111 519.346,494.778 517.5,494.5C 517.918,493.778 518.584,493.278 519.5,493C 518.142,492.066 516.808,491.232 515.5,490.5 Z"/></g>
<g><path style="opacity:1" fill="#aa0002" d="M 479.5,515.5 C 481.912,515.694 482.912,517.027 482.5,519.5C 478.629,519.815 474.962,519.482 471.5,518.5C 474.572,518.817 477.572,518.484 480.5,517.5C 480.137,516.817 479.804,516.15 479.5,515.5 Z"/></g>
<g><path style="opacity:1" fill="#510201" d="M 420.5,545.5 C 418.019,544.742 415.352,544.742 412.5,545.5C 414.879,543.987 417.545,542.987 420.5,542.5C 424.041,542.735 424.041,543.735 420.5,545.5 Z"/></g>
<g><path style="opacity:1" fill="#540101" d="M 661.5,544.5 C 659.302,544.409 658.969,545.075 660.5,546.5C 658.355,546.262 656.688,545.262 655.5,543.5C 657.799,542.243 659.799,542.577 661.5,544.5 Z"/></g>
<g><path style="opacity:1" fill="#660001" d="M 541.5,603.5 C 541.338,605.527 541.505,607.527 542,609.5C 542.383,608.944 542.883,608.611 543.5,608.5C 543.585,609.995 542.919,610.995 541.5,611.5C 540.2,608.691 540.2,606.024 541.5,603.5 Z"/></g>
<g><path style="opacity:1" fill="#af0000" d="M 491.5,659.5 C 490.03,662.318 489.03,665.318 488.5,668.5C 486.744,667.448 486.077,665.781 486.5,663.5C 485.167,663.5 483.833,663.5 482.5,663.5C 482.5,662.167 482.5,660.833 482.5,659.5C 483.708,660.234 485.041,660.567 486.5,660.5C 486.238,659.022 486.571,657.689 487.5,656.5C 488.243,657.908 489.077,659.241 490,660.5C 490.383,659.944 490.883,659.611 491.5,659.5 Z"/></g>
<g><path style="opacity:1" fill="#5a0000" d="M 482.5,653.5 C 482.5,655.5 482.5,657.5 482.5,659.5C 482.5,660.833 482.5,662.167 482.5,663.5C 483.833,663.5 485.167,663.5 486.5,663.5C 486.077,665.781 486.744,667.448 488.5,668.5C 488.539,669.756 488.039,670.756 487,671.5C 485.872,669.655 485.372,667.655 485.5,665.5C 484.167,665.5 482.833,665.5 481.5,665.5C 481.183,661.298 481.517,657.298 482.5,653.5 Z"/></g>
<g><path style="opacity:1" fill="#730002" d="M 578.5,670.5 C 577.751,669.469 577.085,668.302 576.5,667C 575.423,666.53 574.423,666.697 573.5,667.5C 573.187,664.753 573.52,662.086 574.5,659.5C 577.02,662.727 578.354,666.393 578.5,670.5 Z"/></g>
<g><path style="opacity:1" fill="#910001" d="M 596.5,662.5 C 595.185,664.976 594.018,664.642 593,661.5C 592.667,661.833 592.333,662.167 592,662.5C 591.882,665.371 591.216,668.038 590,670.5C 589.209,669.255 588.709,667.922 588.5,666.5C 589.117,666.611 589.617,666.944 590,667.5C 590.497,664.854 590.664,662.187 590.5,659.5C 592.988,659.683 594.988,660.683 596.5,662.5 Z"/></g>
<g><path style="opacity:1" fill="#4f0201" d="M 504.5,670.5 C 504.06,668.156 503.06,666.156 501.5,664.5C 501.5,662.833 501.5,661.167 501.5,659.5C 502.5,659.5 503.5,659.5 504.5,659.5C 504.5,663.167 504.5,666.833 504.5,670.5 Z"/></g>
<g><path style="opacity:1" fill="#b90000" d="M 554.5,670.5 C 553.842,669.602 553.176,668.602 552.5,667.5C 551.501,677.812 551.168,688.145 551.5,698.5C 550.176,686.993 550.176,675.327 551.5,663.5C 553.849,665.204 554.849,667.537 554.5,670.5 Z"/></g>
<g><path style="opacity:1" fill="#590001" d="M 587.5,662.5 C 586.504,662.414 585.671,662.748 585,663.5C 584.83,672.343 584.33,681.01 583.5,689.5C 583.5,679.5 583.5,669.5 583.5,659.5C 584.833,659.5 586.167,659.5 587.5,659.5C 587.5,660.5 587.5,661.5 587.5,662.5 Z"/></g>
<g><path style="opacity:1" fill="#910002" d="M 494.5,682.5 C 495.302,683.952 495.802,685.618 496,687.5C 496.985,685.825 497.819,684.158 498.5,682.5C 498.219,686.188 497.719,689.855 497,693.5C 496.586,693.957 496.086,694.291 495.5,694.5C 494.509,690.555 494.176,686.555 494.5,682.5 Z"/></g>
<g><path style="opacity:1" fill="#3d0400" d="M 504.5,688.5 C 505.317,690.831 505.984,693.331 506.5,696C 507.009,697.169 507.842,698.002 509,698.5C 509.5,705.158 509.666,711.825 509.5,718.5C 509.167,718.5 508.833,718.5 508.5,718.5C 508.829,712.794 508.495,707.128 507.5,701.5C 506.522,701.023 505.689,700.357 505,699.5C 504.501,695.848 504.335,692.182 504.5,688.5 Z"/></g>
<g><path style="opacity:1" fill="#a50001" d="M 508.5,718.5 C 508.833,718.5 509.167,718.5 509.5,718.5C 508.868,726.573 509.535,734.24 511.5,741.5C 511.552,743.903 511.219,746.236 510.5,748.5C 508.577,744.971 507.911,740.971 508.5,736.5C 508.5,730.5 508.5,724.5 508.5,718.5 Z"/></g>
<g><path style="opacity:1" fill="#7d0001" d="M 571.5,720.5 C 571.769,722.429 571.269,724.095 570,725.5C 569.832,734.518 569.332,743.518 568.5,752.5C 568.042,745.616 566.709,738.949 564.5,732.5C 565.85,733.483 566.85,734.816 567.5,736.5C 568.328,731.868 568.828,727.202 569,722.5C 569.708,721.619 570.542,720.953 571.5,720.5 Z"/></g>
<g><path style="opacity:1" fill="#880002" d="M 526.5,724.5 C 527.265,733.719 528.265,743.052 529.5,752.5C 526.881,743.487 525.881,734.154 526.5,724.5 Z"/></g>
<g><path style="opacity:1" fill="#660000" d="M 508.5,736.5 C 507.911,740.971 508.577,744.971 510.5,748.5C 510.884,750.665 510.217,752.332 508.5,753.5C 507.184,747.68 507.184,742.013 508.5,736.5 Z"/></g>
<g><path style="opacity:1" fill="#8c0002" d="M 551.5,744.5 C 550.605,749.264 548.938,753.597 546.5,757.5C 546.208,752.275 547.875,747.942 551.5,744.5 Z"/></g>
<g><path style="opacity:1" fill="#ff3400" d="M 545.5,682.5 C 546.117,682.611 546.617,682.944 547,683.5C 548.283,699.807 548.783,716.14 548.5,732.5C 546.856,732.286 545.356,732.62 544,733.5C 543.777,752.185 543.111,770.852 542,789.5C 540.956,790.623 540.29,791.956 540,793.5C 539.502,790.183 539.335,786.85 539.5,783.5C 538.178,783.67 537.011,783.337 536,782.5C 534.5,767.505 534.166,752.505 535,737.5C 534.316,733.907 532.816,733.573 530.5,736.5C 529.167,718.833 529.167,701.167 530.5,683.5C 531.243,684.908 532.077,686.241 533,687.5C 534.343,686.786 535.676,687.12 537,688.5C 538.915,691.862 539.915,695.529 540,699.5C 540.712,693.424 542.545,687.757 545.5,682.5 Z"/></g>
<g><path style="opacity:1" fill="#010308" d="M 242.5,821.5 C 440.5,821.5 638.5,821.5 836.5,821.5C 836.5,879.167 836.5,936.833 836.5,994.5C 638.5,994.5 440.5,994.5 242.5,994.5C 242.5,936.833 242.5,879.167 242.5,821.5 Z"/></g>
<g><path style="opacity:1" fill="#e53b2c" d="M 697.5,833.5 C 706.33,833.195 714.997,834.195 723.5,836.5C 723.666,840.514 723.499,844.514 723,848.5C 717.915,836.551 709.415,833.384 697.5,839C 694.509,841.99 692.343,845.49 691,849.5C 689.685,857.827 690.685,865.827 694,873.5C 701.007,881.131 708.34,881.464 716,874.5C 716.667,869.833 716.667,865.167 716,860.5C 714.933,859.809 713.766,859.309 712.5,859C 718.5,858.333 724.5,858.333 730.5,859C 729.234,859.309 728.067,859.809 727,860.5C 726.667,865.167 726.333,869.833 726,874.5C 714.235,883.522 701.735,884.689 688.5,878C 678.397,867.267 676.897,855.433 684,842.5C 687.826,838.348 692.326,835.348 697.5,833.5 Z"/></g>
<g><path style="opacity:1" fill="#e63b2c" d="M 349.5,835.5 C 358.657,834.342 367.991,834.176 377.5,835C 389.418,837.673 392.585,844.507 387,855.5C 384.293,857.936 381.127,859.436 377.5,860C 383.47,865.094 388.636,870.927 393,877.5C 399.443,886.134 407.943,891.301 418.5,893C 404.448,898.207 392.948,894.707 384,882.5C 378.747,874.326 373.247,866.326 367.5,858.5C 377.229,857.393 380.729,852.06 378,842.5C 374.658,838.078 370.158,836.411 364.5,837.5C 364.333,851.171 364.5,864.837 365,878.5C 366.419,879.46 367.919,880.293 369.5,881C 362.833,881.667 356.167,881.667 349.5,881C 351.329,880.727 352.829,879.893 354,878.5C 354.667,864.5 354.667,850.5 354,836.5C 352.644,835.62 351.144,835.286 349.5,835.5 Z"/></g>
<g><path style="opacity:1" fill="#e63b2c" d="M 487.5,833.5 C 493.509,833.701 499.509,834.034 505.5,834.5C 505.665,837.85 505.498,841.183 505,844.5C 502.883,837.188 498.049,834.688 490.5,837C 485.597,840.272 485.263,843.939 489.5,848C 496.701,852.004 503.201,856.837 509,862.5C 510.809,876.03 504.809,882.697 491,882.5C 487.254,882.675 483.754,881.842 480.5,880C 476.778,876.076 476.611,871.909 480,867.5C 482.258,878.714 488.758,882.214 499.5,878C 503.601,873.706 503.268,869.706 498.5,866C 493.833,863 489.167,860 484.5,857C 475.988,847.909 476.988,840.076 487.5,833.5 Z"/></g>
<g><path style="opacity:1" fill="#ea3c2c" d="M 610.5,851.5 C 610.44,850.957 610.107,850.624 609.5,850.5C 608.178,859.658 608.178,868.658 609.5,877.5C 610.36,879.614 612.027,880.78 614.5,881C 607.833,881.667 601.167,881.667 594.5,881C 596.329,880.727 597.829,879.893 599,878.5C 599.333,863.833 599.667,849.167 600,834.5C 611,844.833 622,855.167 633,865.5C 633.667,856.167 633.667,846.833 633,837.5C 631.509,835.996 629.676,835.163 627.5,835C 634.167,834.333 640.833,834.333 647.5,835C 645.671,835.273 644.171,836.107 643,837.5C 642.368,852.579 642.368,867.579 643,882.5C 631.968,872.3 621.135,861.967 610.5,851.5 Z"/></g>
<g><path style="opacity:1" fill="#e43a2b" d="M 425.5,835.5 C 431.987,834.346 438.654,834.179 445.5,835C 443.671,835.273 442.171,836.107 441,837.5C 440.333,851.167 440.333,864.833 441,878.5C 442.171,879.893 443.671,880.727 445.5,881C 438.833,881.667 432.167,881.667 425.5,881C 427.492,880.426 428.992,879.259 430,877.5C 430.667,864.167 430.667,850.833 430,837.5C 428.89,835.963 427.39,835.297 425.5,835.5 Z"/></g>
<g><path style="opacity:1" fill="#e83b2c" d="M 542.5,835.5 C 548.987,834.346 555.654,834.179 562.5,835C 560.671,835.273 559.171,836.107 558,837.5C 557.333,851.167 557.333,864.833 558,878.5C 559.171,879.893 560.671,880.727 562.5,881C 555.833,881.667 549.167,881.667 542.5,881C 544.329,880.727 545.829,879.893 547,878.5C 547.667,864.833 547.667,851.167 547,837.5C 545.89,835.963 544.39,835.297 542.5,835.5 Z"/></g>
<g><path style="opacity:1" fill="#85221b" d="M 610.5,851.5 C 609.507,859.984 609.174,868.651 609.5,877.5C 608.178,868.658 608.178,859.658 609.5,850.5C 610.107,850.624 610.44,850.957 610.5,851.5 Z"/></g>
<g><path style="opacity:1" fill="#e73b2c" d="M 477.5,908.5 C 479.628,907.371 481.961,907.204 484.5,908C 483.544,911.394 483.211,914.894 483.5,918.5C 486.833,918.5 490.167,918.5 493.5,918.5C 493.789,914.894 493.456,911.394 492.5,908C 494.833,907.333 497.167,907.333 499.5,908C 498.167,915.333 498.167,922.667 499.5,930C 497.167,930.667 494.833,930.667 492.5,930C 493.456,926.606 493.789,923.106 493.5,919.5C 490.167,919.5 486.833,919.5 483.5,919.5C 483.211,923.106 483.544,926.606 484.5,930C 482.167,930.667 479.833,930.667 477.5,930C 478.827,922.735 478.827,915.568 477.5,908.5 Z"/></g>
<g><path style="opacity:1" fill="#e23a2b" d="M 552.5,907.5 C 553.833,908.167 553.833,908.833 552.5,909.5C 550.167,909.5 547.833,909.5 545.5,909.5C 545.5,912.5 545.5,915.5 545.5,918.5C 548.079,918.917 550.246,918.25 552,916.5C 552.667,918.167 552.667,919.833 552,921.5C 550.211,919.771 548.044,919.104 545.5,919.5C 545.5,922.833 545.5,926.167 545.5,929.5C 549.684,930.296 552.85,928.963 555,925.5C 555.595,926.899 555.428,928.232 554.5,929.5C 549.533,930.662 544.533,930.829 539.5,930C 540.833,922.667 540.833,915.333 539.5,908C 543.821,907.501 548.154,907.334 552.5,907.5 Z"/></g>
<g><path style="opacity:1" fill="#751f19" d="M 552.5,907.5 C 552.56,906.957 552.893,906.624 553.5,906.5C 554.641,908.421 554.808,910.421 554,912.5C 553.487,911.473 552.987,910.473 552.5,909.5C 553.833,908.833 553.833,908.167 552.5,907.5 Z"/></g>
<g><path style="opacity:1" fill="#e33a2b" d="M 593.5,908.5 C 595.628,907.371 597.961,907.204 600.5,908C 599.167,915.333 599.167,922.667 600.5,930C 598.167,930.667 595.833,930.667 593.5,930C 594.827,922.735 594.827,915.568 593.5,908.5 Z"/></g>
<g><path style="opacity:1" fill="#dd392a" d="M 606.5,908.5 C 609.64,907.359 612.973,907.192 616.5,908C 616.043,908.414 615.709,908.914 615.5,909.5C 616.833,911.5 618.167,913.5 619.5,915.5C 622.115,913.465 623.115,910.965 622.5,908C 624.5,907.333 626.5,907.333 628.5,908C 625.435,910.788 623.102,914.121 621.5,918C 623.4,922.557 626.067,926.557 629.5,930C 626.5,930.667 623.5,930.667 620.5,930C 620.957,929.586 621.291,929.086 621.5,928.5C 620.197,926.032 618.697,923.699 617,921.5C 615.303,923.699 613.803,926.032 612.5,928.5C 612.709,929.086 613.043,929.586 613.5,930C 611.167,930.667 608.833,930.667 606.5,930C 610.44,927.13 613.44,923.463 615.5,919C 613.8,915.768 611.966,912.601 610,909.5C 608.989,908.663 607.822,908.33 606.5,908.5 Z"/></g>
<g><path style="opacity:1" fill="#e0392b" d="M 452.5,928.5 C 453.201,921.933 453.868,915.267 454.5,908.5C 460.308,906.535 465.474,907.535 470,911.5C 470.562,919.617 467.062,922.45 459.5,920C 465.523,918.559 466.856,915.226 463.5,910C 461.527,909.505 459.527,909.338 457.5,909.5C 457.188,916.422 457.521,923.256 458.5,930C 455.833,930.667 453.167,930.667 450.5,930C 451.416,929.722 452.082,929.222 452.5,928.5 Z"/></g>
<g><path style="opacity:1" fill="#d9382a" d="M 514.5,907.5 C 520.279,906.708 525.446,908.041 530,911.5C 534.885,925.635 529.719,931.802 514.5,930C 506.275,925.807 504.442,919.641 509,911.5C 510.812,910.023 512.645,908.69 514.5,907.5 Z"/></g>
<g><path style="opacity:1" fill="#0c0509" d="M 517.5,908.5 C 525.419,909.262 528.585,913.596 527,921.5C 525.761,928.072 521.927,930.238 515.5,928C 514.299,927.097 513.465,925.931 513,924.5C 512.333,920.833 512.333,917.167 513,913.5C 514.025,911.313 515.525,909.646 517.5,908.5 Z"/></g>
<g><path style="opacity:1" fill="#dc382a" d="M 563.5,907.5 C 568.48,912.145 573.48,916.812 578.5,921.5C 579.8,916.95 579.8,912.45 578.5,908C 580.833,907.333 583.167,907.333 585.5,908C 584.849,915.11 584.183,922.277 583.5,929.5C 578.515,925.015 573.681,920.349 569,915.5C 568.198,920.419 568.365,925.252 569.5,930C 567.167,930.667 564.833,930.667 562.5,930C 563.481,922.587 563.814,915.087 563.5,907.5 Z"/></g>
<g><path style="opacity:1" fill="#8c241d" d="M 454.5,908.5 C 453.868,915.267 453.201,921.933 452.5,928.5C 453.101,921.711 452.434,915.211 450.5,909C 451.793,908.51 453.127,908.343 454.5,908.5 Z"/></g>
</svg>
